<svg xmlns="http://www.w3.org/2000/svg" viewBox="0 0 270.62 271.31"><defs><style>.cls-1{fill:#e65120;}.cls-2{fill:#fefcfc;}</style></defs><title>Asset 1</title><g id="Layer_2" data-name="Layer 2"><g id="Layer_1-2" data-name="Layer 1"><g id="Layer_2-2" data-name="Layer 2"><g id="Layer_1-2-2" data-name="Layer 1-2"><path class="cls-1" d="M0,135.81C-1.28,62.61,59.82-1,137.32,0c72.9,1,133.4,60.8,133.3,135.2,0,75.6-60.3,136.2-135.5,136.1C58.92,271.11-1,208.41,0,135.81Z"/><path class="cls-2" d="M229.72,149.41H94.12c-.4,15,10.4,34.1,25.3,40,20.6,8.1,39.2,2,54.9-18.5,16.5.4,33.2,2.5,49.9,3.6.8,2.6-.7,4.4-1.5,6.3-10.5,25.4-29.8,40.9-55.8,47.9-23.9,6.4-47.9,6.3-71.2-2.6s-40-25.3-49.1-48.7c-11.7-30.1-11.2-60.3,1.8-89.9,10.2-23.2,27.9-38.6,52-46.3s48.7-7.5,72.4,1.8c29.4,11.5,46.6,33.8,53.8,64.1a99,99,0,0,1,3,24.2C229.72,137.11,229.72,142.91,229.72,149.41Z"/><path class="cls-1" d="M176.72,115H94.12a41,41,0,0,1,38.1-38.6C154.92,74.71,174.12,90.61,176.72,115Z"/></g></g></g></g></svg>