<svg xmlns="http://www.w3.org/2000/svg" viewBox="0 0 139.1 139.1"><defs><style>.cls-1{fill:#fcd405;}.cls-2,.cls-4{fill:none;stroke:#fcd405;stroke-width:5.72px;}.cls-3{fill:#145798;}.cls-4{stroke-linejoin:bevel;}</style></defs><title>Asset 1</title><g id="Layer_2" data-name="Layer 2"><g id="Layer_1-2" data-name="Layer 1"><g id="Page-1"><g id="sweden-connect-farg"><path id="Fill-14" class="cls-1" d="M139.1,69.55A69.55,69.55,0,1,1,69.55,0,69.55,69.55,0,0,1,139.1,69.55Z"/><path id="Stroke-15" class="cls-2" d="M55.68,79.27q-7.34-4.72-9-11.82t3-14.06l14.16-22Q68.37,24.49,75.5,23t14.42,3.1Q97.15,30.78,98.71,38q1.73,7.17-2.74,14.09l-14.17,22q-4.53,7-11.66,8.47T55.68,79.27ZM59.75,73a9.73,9.73,0,0,0,8,1.43A11.8,11.8,0,0,0,74.83,69L88.41,47.92a11.55,11.55,0,0,0,2-8.66,10.24,10.24,0,0,0-12.62-8.14,11.86,11.86,0,0,0-7,5.45L57.22,57.64a12.13,12.13,0,0,0-2.08,8.6A9.73,9.73,0,0,0,59.75,73Z"/><path id="Fill-16" class="cls-3" d="M55.68,79.27q-7.34-4.72-9-11.82t3-14.06l14.17-22Q68.37,24.49,75.5,23t14.42,3.1Q97.15,30.78,98.71,38q1.73,7.17-2.74,14.09l-14.17,22q-4.53,7-11.66,8.47T55.68,79.27ZM59.75,73a9.73,9.73,0,0,0,8,1.43A11.8,11.8,0,0,0,74.83,69L88.41,47.92a11.55,11.55,0,0,0,2-8.66,10.24,10.24,0,0,0-12.62-8.14,11.86,11.86,0,0,0-7,5.45L57.22,57.64a12.13,12.13,0,0,0-2.08,8.6A9.73,9.73,0,0,0,59.75,73Z"/><path id="Stroke-17" class="cls-2" d="M57.48,66.26l-14.18,22q-4.52,7-3,14.06t9,11.82q7.34,4.72,14.46,3.27t11.66-8.48l14.17-22L82,82.77,68.41,103.84a11.82,11.82,0,0,1-7.07,5.39,10.52,10.52,0,0,1-12.62-8.14A12.06,12.06,0,0,1,50.8,92.5L64.38,71.43Z"/><path id="Fill-18" class="cls-3" d="M57.48,66.26l-14.17,22q-4.53,7-3,14.06t9,11.82q7.34,4.72,14.46,3.27t11.66-8.48l14.17-22L82,82.77,68.41,103.84a11.82,11.82,0,0,1-7.07,5.39,10.52,10.52,0,0,1-12.62-8.14A12.06,12.06,0,0,1,50.8,92.5L64.38,71.43Z"/><path id="Fill-19" class="cls-3" d="M49.25,114.12q-7.32-4.73-9-11.82t3-14l14.17-22q4.46-6.93,11.59-8.38T83.5,61q7.22,4.67,8.78,11.86Q94,80,89.54,86.92l-14.17,22q-4.52,7-11.65,8.48T49.25,114.12Zm4.07-6.31a9.75,9.75,0,0,0,8,1.42,11.84,11.84,0,0,0,7.07-5.38L82,82.77a11.53,11.53,0,0,0,2-8.66A10.24,10.24,0,0,0,71.35,66a11.8,11.8,0,0,0-7,5.45L50.8,92.5a12.06,12.06,0,0,0-2.08,8.59A9.7,9.7,0,0,0,53.32,107.81Z"/><path id="Stroke-20" class="cls-4" d="M89.92,26.13C85.11,23,80.29,22,75.5,23s-8.62,3.76-11.6,8.37l-14.16,22,7.48,4.25L70.81,36.57a11.82,11.82,0,0,1,7-5.45,10.25,10.25,0,0,1,12.62,8.13,11.52,11.52,0,0,1-2,8.67L74.84,69l7,5.07L96,52.07Q100.43,45.14,98.7,38,97.16,30.8,89.92,26.13Z"/><path id="Fill-21" class="cls-3" d="M89.92,26.13C85.11,23,80.29,22,75.5,23s-8.62,3.76-11.6,8.37l-14.17,22,7.49,4.25L70.81,36.57a11.82,11.82,0,0,1,7-5.45,10.25,10.25,0,0,1,12.62,8.13,11.52,11.52,0,0,1-2,8.67L74.84,69l7,5.07L96,52.07Q100.43,45.14,98.7,38,97.16,30.8,89.92,26.13Z"/><path id="Fill-22" class="cls-3" d="M89.92,26.13C85.11,23,80.29,22,75.5,23s-8.62,3.76-11.6,8.37l-14.17,22a21.3,21.3,0,0,0-2.87,6.7c12,8.25,6,4.56,10.36-2.45L70.81,36.57a11.82,11.82,0,0,1,7-5.45,10.25,10.25,0,0,1,12.62,8.13,11.52,11.52,0,0,1-2,8.67L74.84,69a12.48,12.48,0,0,1-3.55,3.67s2.57,4.82,5.58,6.77a21.17,21.17,0,0,0,4.93-5.37L96,52.07Q100.43,45.14,98.7,38,97.16,30.8,89.92,26.13Z"/></g></g></g></g></svg>