<?xml version="1.0" encoding="utf-8"?>
<!-- Generator: Adobe Illustrator 22.1.0, SVG Export Plug-In . SVG Version: 6.00 Build 0)  -->
<svg version="1.1" id="Layer_1" xmlns="http://www.w3.org/2000/svg" xmlns:xlink="http://www.w3.org/1999/xlink" x="0px" y="0px"
	 viewBox="0 0 391 140" style="enable-background:new 0 0 391 140;" xml:space="preserve">
<style type="text/css">
	.st0{fill:#030000;}
	.st1{fill:#FCD405;}
	.st2{fill:none;stroke:#FCD405;stroke-width:5.721;}
	.st3{fill:#145798;}
	.st4{fill:none;stroke:#FCD405;stroke-width:5.721;stroke-linejoin:bevel;}
	.st5{clip-path:url(#SVGID_2_);}
	.st6{clip-path:url(#SVGID_4_);fill:#005293;}
	.st7{clip-path:url(#SVGID_4_);fill:#FECB00;}
</style>
<title>sweden-connect-farg</title>
<desc>Created with Sketch.</desc>
<g id="Page-1">
	<g id="sweden-connect-farg" transform="translate(0.000000, -1.000000)">
		<path id="Fill-1" class="st0" d="M180.2,27.3c-8,0-12.8,4.4-12.8,10.2c0,5.7,2.9,7.8,11.6,9.9c4.7,1.1,8.3,1.8,8.3,4.9
			c0,2.7-2.7,4.3-6.2,4.3c-3.8,0-6.4-1.1-11.1-5.1l-4,4.7c5.1,4.7,9.3,6.2,15,6.2c8.2,0,13.2-4.4,13.2-10.6c0-6-3.7-8.4-12.2-10.4
			c-5.6-1.3-7.9-1.8-7.9-4.3c0-2.3,2.3-4,6.1-4c3.3,0,5.7,0.8,9.7,4l3.8-4.8C189.2,28.6,185.5,27.3,180.2,27.3z"/>
		<path id="Fill-2" class="st0" d="M235.9,28.4l-2.8,11.5c-1.4,5.7-2.5,10.8-3.3,15.2c-0.9-4.4-2.1-9.4-3.5-15.2l-3-11.5h-6.5
			l-3,11.5c-1.4,5.7-2.6,10.7-3.5,15c-0.8-4.4-1.9-9.4-3.3-15l-2.8-11.5h-7.3l8.9,33.1h8.3l2.5-9.7c1.4-5.7,2.5-10.4,3.3-14.4
			c0.8,4,1.9,8.6,3.4,14.4l2.6,9.7h8.3l8.8-33.1H235.9z"/>
		<path id="Fill-3" class="st0" d="M272,51.4c-3.8,3.6-6,4.9-9.8,4.9c-6.1,0-9-4.4-9.5-9.8h23.2c0.1-0.7,0.1-2.1,0.1-3
			c0-10-5.2-16.3-14.6-16.3c-9.7,0-15.6,7.4-15.6,17.8c0,10.5,6.2,17.3,16.2,17.3c5.1,0,9.3-1.6,14-6.7L272,51.4z M261.2,33
			c4.9,0,7.7,3.2,8,8.2h-16.4C253.7,36.2,256.5,33,261.2,33z"/>
		<path id="Fill-4" class="st0" d="M304.7,14.6v17.6c-2.1-3.1-5.4-4.8-9.9-4.8c-8,0-14.1,6.9-14.1,17.5s5.9,17.5,14,17.5
			c4.9,0,8.3-2.1,10.5-5.7v4.8h6.4V14.6H304.7z M296.1,56.2c-5.1,0-8.3-4.5-8.3-11.3s3.4-11.2,8.4-11.2c5,0,8.8,4.1,8.8,11.2
			C304.9,52,301.3,56.2,296.1,56.2z"/>
		<path id="Fill-5" class="st0" d="M344,51.4c-3.8,3.6-6,4.9-9.8,4.9c-6.1,0-9-4.4-9.5-9.8h23.2c0.1-0.7,0.1-2.1,0.1-3
			c0-10-5.2-16.3-14.6-16.3c-9.7,0-15.6,7.4-15.6,17.8c0,10.5,6.2,17.3,16.2,17.3c5.1,0,9.3-1.6,14-6.7L344,51.4z M333.2,33
			c4.9,0,7.7,3.2,8,8.2h-16.3C325.7,36.2,328.5,33,333.2,33z"/>
		<path id="Fill-6" class="st0" d="M370.5,27.3c-4.4,0-7.8,1.8-9.8,5.1v-4h-6.4v33.1h6.9V41.2c0-4.5,3-7.7,7.1-7.7
			c4.2,0,6.6,2.6,6.6,7.5v20.4h6.9V38.8C381.8,32.3,378,27.3,370.5,27.3z"/>
		<path id="Fill-7" class="st0" d="M191.5,93.7l4.4-4.5c-4.1-4.7-8-6.3-13.1-6.3c-9.3,0-15.9,6.8-15.9,17.6
			c0,10.8,6.4,17.5,15.8,17.5c5.4,0,9.3-1.7,13.6-7.4l-4.6-4c-3.5,4-5.7,5.3-9,5.3c-5.9,0-8.8-5.3-8.8-11.3c0-6.1,3-11.5,8.8-11.5
			C185.5,89.1,187.9,89.9,191.5,93.7z"/>
		<path id="Fill-8" class="st0" d="M214.3,82.9c-9.5,0-16.2,7.1-16.2,17.6c0,10.4,6.6,17.5,16.2,17.5c9.4,0,16.1-7.1,16.1-17.5
			C230.4,90.1,223.7,82.9,214.3,82.9z M214.3,89.1c5.4,0,9,4.6,9,11.5c0,6.9-3.6,11.4-9,11.4c-5.6,0-9.1-4.5-9.1-11.4
			C205.2,93.6,208.8,89.1,214.3,89.1z"/>
		<path id="Fill-9" class="st0" d="M252.1,82.9c-4.4,0-7.8,1.8-9.8,5.1v-4h-6.4v33.1h6.9V96.8c0-4.5,3-7.7,7.1-7.7
			c4.2,0,6.6,2.6,6.6,7.5v20.4h6.9V94.4C263.5,87.9,259.6,82.9,252.1,82.9z"/>
		<path id="Fill-10" class="st0" d="M287,82.9c-4.4,0-7.8,1.8-9.8,5.1v-4h-6.4v33.1h6.9V96.8c0-4.5,3-7.7,7.1-7.7
			c4.2,0,6.6,2.6,6.6,7.5v20.4h6.9V94.4C298.3,87.9,294.5,82.9,287,82.9z"/>
		<path id="Fill-11" class="st0" d="M330,107c-3.8,3.6-6,4.9-9.9,4.9c-6.1,0-9-4.4-9.5-9.8h23.2c0.1-0.7,0.1-2.1,0.1-3
			c0-10-5.2-16.3-14.6-16.3c-9.7,0-15.6,7.5-15.6,17.8c0,10.5,6.2,17.3,16.2,17.3c5.1,0,9.3-1.6,14-6.7L330,107z M319.2,88.7
			c4.9,0,7.7,3.2,8,8.2h-16.3C311.7,91.8,314.5,88.7,319.2,88.7z"/>
		<path id="Fill-12" class="st0" d="M362.6,93.7l4.4-4.5c-4.1-4.7-8-6.3-13.1-6.3c-9.3,0-15.9,6.8-15.9,17.6
			c0,10.8,6.4,17.5,15.8,17.5c5.4,0,9.3-1.7,13.6-7.4l-4.6-4c-3.5,4-5.7,5.3-9,5.3c-5.9,0-8.8-5.3-8.8-11.3c0-6.1,3-11.5,8.8-11.5
			C356.6,89.1,359,89.9,362.6,93.7z"/>
		<path id="Fill-13" class="st0" d="M389.6,110.8c-2.1,0.6-3.2,0.7-4.2,0.7c-2.3,0-3.4-0.9-3.4-3.5V89.5h8V84h-8V73.3H375V84h-5.7
			v5.5h5.7v19.5c0,5.7,2.3,8.9,8.6,8.9c2,0,4.2-0.3,6.8-1.3L389.6,110.8z"/>
		<path id="Fill-14" class="st1" d="M139.1,71.4c0,38.4-31.1,69.6-69.6,69.6S0,109.9,0,71.4S31.1,1.9,69.6,1.9S139.1,33,139.1,71.4z
			"/>
		<path id="Stroke-15" class="st2" d="M55.7,81.2c-4.9-3.1-7.9-7.1-9-11.8c-1-4.7,0-9.4,3-14.1l14.2-22c3-4.6,6.8-7.4,11.6-8.4
			c4.8-1,9.6,0,14.4,3.1c4.8,3.1,7.7,7.1,8.8,11.9c1.1,4.8,0.2,9.5-2.7,14.1L81.8,76c-3,4.7-6.9,7.5-11.7,8.5
			C65.4,85.4,60.6,84.3,55.7,81.2z M59.7,74.9c2.6,1.7,5.3,2.1,8,1.4c2.9-0.7,5.2-2.5,7.1-5.4l13.6-21.1c1.9-2.9,2.5-5.8,2-8.7
			c-0.4-2.9-2-5.2-4.5-6.8c-2.6-1.7-5.3-2.1-8.1-1.3c-2.8,0.7-5.1,2.5-7,5.4L57.2,59.5c-1.8,2.9-2.5,5.7-2.1,8.6
			C55.6,71,57.2,73.2,59.7,74.9z"/>
		<path id="Fill-16" class="st3" d="M55.7,81.2c-4.9-3.1-7.9-7.1-9-11.8c-1-4.7,0-9.4,3-14.1l14.2-22c3-4.6,6.8-7.4,11.6-8.4
			c4.8-1,9.6,0,14.4,3.1c4.8,3.1,7.7,7.1,8.8,11.9c1.1,4.8,0.2,9.5-2.7,14.1L81.8,76c-3,4.7-6.9,7.5-11.7,8.5
			C65.4,85.4,60.6,84.3,55.7,81.2z M59.7,74.9c2.6,1.7,5.3,2.1,8,1.4c2.9-0.7,5.2-2.5,7.1-5.4l13.6-21.1c1.9-2.9,2.5-5.8,2-8.7
			c-0.4-2.9-2-5.2-4.5-6.8c-2.6-1.7-5.3-2.1-8.1-1.3c-2.8,0.7-5.1,2.5-7,5.4L57.2,59.5c-1.8,2.9-2.5,5.7-2.1,8.6
			C55.6,71,57.2,73.2,59.7,74.9z"/>
		<path id="Stroke-17" class="st2" d="M57.5,68.2l-14.2,22c-3,4.7-4,9.4-3,14.1c1.1,4.7,4.1,8.7,9,11.8c4.9,3.1,9.7,4.2,14.5,3.3
			c4.8-1,8.6-3.8,11.7-8.5l14.2-22L82,84.7l-13.6,21.1c-1.8,2.9-4.2,4.6-7.1,5.4c-2.8,0.7-5.4,0.2-8-1.4c-2.6-1.7-4.1-3.9-4.6-6.7
			c-0.4-2.9,0.2-5.7,2.1-8.6l13.6-21.1L57.5,68.2z"/>
		<path id="Fill-18" class="st3" d="M57.5,68.2l-14.2,22c-3,4.7-4,9.4-3,14.1c1.1,4.7,4.1,8.7,8.9,11.8c4.9,3.1,9.7,4.2,14.5,3.3
			c4.8-1,8.6-3.8,11.7-8.5l14.2-22L82,84.7l-13.6,21.1c-1.8,2.9-4.2,4.6-7.1,5.4c-2.8,0.7-5.4,0.2-8-1.4c-2.6-1.7-4.1-3.9-4.6-6.7
			c-0.4-2.9,0.2-5.7,2.1-8.6l13.6-21.1L57.5,68.2z"/>
		<path id="Fill-19" class="st3" d="M49.2,116c-4.9-3.1-7.9-7.1-8.9-11.8c-1-4.7,0-9.4,3-14.1l14.2-22c3-4.6,6.8-7.4,11.6-8.4
			c4.8-1,9.6,0,14.4,3.1c4.8,3.1,7.7,7.1,8.8,11.9c1.1,4.8,0.2,9.5-2.7,14.1l-14.2,22c-3,4.7-6.9,7.5-11.7,8.5
			C59,120.3,54.1,119.2,49.2,116z M53.3,109.7c2.6,1.7,5.2,2.1,8,1.4c2.9-0.7,5.2-2.5,7.1-5.4L82,84.7c1.9-2.9,2.5-5.8,2-8.7
			c-0.4-2.9-2-5.2-4.5-6.8c-2.6-1.7-5.3-2.1-8.1-1.3c-2.8,0.7-5.1,2.5-7,5.4L50.8,94.4c-1.8,2.9-2.5,5.7-2.1,8.6
			C49.2,105.8,50.7,108,53.3,109.7z"/>
		<path id="Stroke-20" class="st4" d="M89.9,28c-4.8-3.1-9.6-4.1-14.4-3.1c-4.8,1-8.6,3.8-11.6,8.4l-14.2,22l7.5,4.2l13.6-21.1
			c1.9-2.9,4.2-4.7,7-5.4c2.8-0.8,5.5-0.3,8.1,1.3c2.6,1.7,4.1,3.9,4.5,6.8c0.6,2.9-0.1,5.8-2,8.7L74.8,70.9l7,5.1L96,54
			c3-4.6,3.9-9.3,2.7-14.1C97.7,35.1,94.7,31.1,89.9,28z"/>
		<path id="Fill-21" class="st3" d="M89.9,28c-4.8-3.1-9.6-4.1-14.4-3.1c-4.8,1-8.6,3.8-11.6,8.4l-14.2,22l7.5,4.2l13.6-21.1
			c1.9-2.9,4.2-4.7,7-5.4c2.8-0.8,5.5-0.3,8.1,1.3c2.6,1.7,4.1,3.9,4.5,6.8c0.6,2.9-0.1,5.8-2,8.7L74.8,70.9l7,5.1L96,54
			c3-4.6,3.9-9.3,2.7-14.1C97.7,35.1,94.7,31.1,89.9,28z"/>
		<path id="Fill-22" class="st3" d="M89.9,28c-4.8-3.1-9.6-4.1-14.4-3.1c-4.8,1-8.6,3.8-11.6,8.4l-14.2,22c-1.4,2.2-2.4,4.5-2.9,6.7
			c12,8.3,6,4.6,10.4-2.4l13.6-21.1c1.9-2.9,4.2-4.7,7-5.4c2.8-0.8,5.5-0.3,8.1,1.3c2.6,1.7,4.1,3.9,4.5,6.8c0.6,2.9-0.1,5.8-2,8.7
			L74.8,70.9c-1,1.6-2.2,2.8-3.5,3.7c0,0,2.6,4.8,5.6,6.8c1.8-1.4,3.5-3.1,4.9-5.4L96,54c3-4.6,3.9-9.3,2.7-14.1
			C97.7,35.1,94.7,31.1,89.9,28z"/>
	</g>
</g>
<g>
	<g>
		<defs>
			<rect id="SVGID_1_" x="-0.6" y="1" width="140" height="140"/>
		</defs>
		<clipPath id="SVGID_2_">
			<use xlink:href="#SVGID_1_"  style="overflow:visible;"/>
		</clipPath>
		<g class="st5">
			<defs>
				<circle id="SVGID_3_" cx="69.4" cy="71" r="70"/>
			</defs>
			<clipPath id="SVGID_4_">
				<use xlink:href="#SVGID_3_"  style="overflow:visible;"/>
			</clipPath>
			<rect x="-0.6" y="1" class="st6" width="139.3" height="139.3"/>
			<rect x="27.3" y="1" class="st7" width="27.9" height="139.3"/>
			<rect x="-0.6" y="56.8" class="st7" width="139.3" height="27.9"/>
		</g>
	</g>
</g>
</svg>
