<?xml version="1.0" encoding="UTF-8" standalone="no"?>
<svg width="391px" height="140px" viewBox="0 0 391 140" version="1.1" xmlns="http://www.w3.org/2000/svg" xmlns:xlink="http://www.w3.org/1999/xlink">
    <!-- Generator: Sketch 46.2 (44496) - http://www.bohemiancoding.com/sketch -->
    <title>sweden-connect-farg</title>
    <desc>Created with Sketch.</desc>
    <defs></defs>
    <g id="Page-1" stroke="none" stroke-width="1" fill="none" fill-rule="evenodd">
        <g id="sweden-connect-farg" transform="translate(0.000000, -1.000000)">
            <path d="M180.242,27.308 C172.223,27.308 167.426,31.726 167.426,37.465 C167.426,43.132 170.328,45.312 179.043,47.355 C183.777,48.41 187.312,49.136 187.312,52.3 C187.312,55.004 184.598,56.586 181.062,56.586 C177.273,56.586 174.621,55.531 169.953,51.511 L165.91,56.257 C171.023,60.941 175.191,62.457 180.934,62.457 C189.141,62.457 194.129,58.105 194.129,51.84 C194.129,45.84 190.469,43.465 181.945,41.484 C176.391,40.168 174.055,39.707 174.055,37.199 C174.055,34.89 176.391,33.175 180.113,33.175 C183.461,33.175 185.859,33.968 189.836,37.132 L193.625,32.32 C189.203,28.625 185.48,27.308 180.242,27.308 Z" id="Fill-1" fill="#030000"></path>
            <path d="M235.922,28.363 L233.082,39.902 C231.691,45.64 230.621,50.718 229.797,55.07 C228.852,50.718 227.715,45.64 226.262,39.902 L223.234,28.363 L216.73,28.363 L213.766,39.902 C212.375,45.574 211.176,50.586 210.23,54.937 C209.41,50.586 208.336,45.574 206.945,39.902 L204.168,28.363 L196.848,28.363 L205.746,61.468 L214.016,61.468 L216.543,51.773 C217.992,46.035 219.004,41.355 219.887,37.398 C220.707,41.355 221.781,46.035 223.297,51.773 L225.887,61.468 L234.219,61.468 L243.055,28.363 L235.922,28.363 Z" id="Fill-2" fill="#030000"></path>
            <path d="M272.008,51.379 C268.219,54.937 266.012,56.324 262.16,56.324 C256.035,56.324 253.133,51.972 252.629,46.562 L275.859,46.562 C275.922,45.906 275.984,44.453 275.984,43.597 C275.984,33.574 270.809,27.308 261.402,27.308 C251.742,27.308 245.809,34.757 245.809,45.113 C245.809,55.597 251.996,62.457 262.031,62.457 C267.145,62.457 271.375,60.808 276.047,55.797 L272.008,51.379 Z M261.211,33.047 C266.074,33.047 268.914,36.277 269.168,41.289 L252.816,41.289 C253.699,36.211 256.543,33.047 261.211,33.047 Z" id="Fill-3" fill="#030000"></path>
            <path d="M304.68,14.644 L304.68,32.254 C302.535,29.152 299.316,27.441 294.77,27.441 C286.754,27.441 280.691,34.297 280.691,44.914 C280.691,55.531 286.629,62.39 294.707,62.39 C299.633,62.39 303.039,60.281 305.188,56.652 L305.188,61.468 L311.625,61.468 L311.625,14.644 L304.68,14.644 Z M296.098,56.191 C290.984,56.191 287.762,51.707 287.762,44.914 C287.762,38.121 291.172,33.703 296.16,33.703 C301.145,33.703 304.934,37.793 304.934,44.914 C304.934,51.972 301.273,56.191 296.098,56.191 Z" id="Fill-4" fill="#030000"></path>
            <path d="M343.992,51.379 C340.203,54.937 337.992,56.324 334.145,56.324 C328.02,56.324 325.117,51.972 324.609,46.562 L347.84,46.562 C347.906,45.906 347.969,44.453 347.969,43.597 C347.969,33.574 342.793,27.308 333.387,27.308 C323.727,27.308 317.793,34.757 317.793,45.113 C317.793,55.597 323.98,62.457 334.016,62.457 C339.129,62.457 343.359,60.808 348.031,55.797 L343.992,51.379 Z M333.195,33.047 C338.059,33.047 340.898,36.277 341.148,41.289 L324.801,41.289 C325.684,36.211 328.523,33.047 333.195,33.047 Z" id="Fill-5" fill="#030000"></path>
            <path d="M370.48,27.308 C366.125,27.308 362.719,29.152 360.695,32.386 L360.695,28.363 L354.258,28.363 L354.258,61.468 L361.203,61.468 L361.203,41.222 C361.203,36.738 364.23,33.507 368.336,33.507 C372.566,33.507 374.902,36.144 374.902,41.023 L374.902,61.468 L381.844,61.468 L381.844,38.781 C381.844,32.254 377.992,27.308 370.48,27.308 Z" id="Fill-6" fill="#030000"></path>
            <path d="M191.477,93.683 L195.898,89.199 C191.793,84.515 187.941,82.933 182.828,82.933 C173.488,82.933 166.922,89.726 166.922,100.543 C166.922,111.293 173.297,118.082 182.766,118.082 C188.133,118.082 192.047,116.371 196.402,110.632 L191.793,106.609 C188.32,110.566 186.047,111.886 182.828,111.886 C176.957,111.886 173.992,106.609 173.992,100.543 C173.992,94.476 176.957,89.066 182.828,89.066 C185.543,89.066 187.879,89.925 191.477,93.683 Z" id="Fill-7" fill="#030000"></path>
            <path d="M214.34,82.933 C204.809,82.933 198.18,90.058 198.18,100.543 C198.18,110.961 204.809,118.082 214.34,118.082 C223.746,118.082 230.438,110.961 230.438,100.543 C230.438,90.058 223.746,82.933 214.34,82.933 Z M214.34,89.066 C219.77,89.066 223.367,93.617 223.367,100.543 C223.367,107.402 219.77,111.949 214.34,111.949 C208.785,111.949 205.25,107.402 205.25,100.543 C205.25,93.617 208.785,89.066 214.34,89.066 Z" id="Fill-8" fill="#030000"></path>
            <path d="M252.117,82.933 C247.762,82.933 244.352,84.781 242.332,88.011 L242.332,83.988 L235.895,83.988 L235.895,117.093 L242.836,117.093 L242.836,96.847 C242.836,92.363 245.867,89.132 249.973,89.132 C254.199,89.132 256.535,91.769 256.535,96.652 L256.535,117.093 L263.48,117.093 L263.48,94.41 C263.48,87.879 259.629,82.933 252.117,82.933 Z" id="Fill-9" fill="#030000"></path>
            <path d="M286.953,82.933 C282.598,82.933 279.188,84.781 277.168,88.011 L277.168,83.988 L270.73,83.988 L270.73,117.093 L277.672,117.093 L277.672,96.847 C277.672,92.363 280.703,89.132 284.805,89.132 C289.035,89.132 291.371,91.769 291.371,96.652 L291.371,117.093 L298.316,117.093 L298.316,94.41 C298.316,87.879 294.465,82.933 286.953,82.933 Z" id="Fill-10" fill="#030000"></path>
            <path d="M329.996,107.004 C326.207,110.566 323.996,111.949 320.145,111.949 C314.023,111.949 311.121,107.597 310.613,102.191 L333.844,102.191 C333.906,101.531 333.973,100.082 333.973,99.222 C333.973,89.199 328.793,82.933 319.391,82.933 C309.73,82.933 303.797,90.386 303.797,100.738 C303.797,111.226 309.984,118.082 320.02,118.082 C325.133,118.082 329.363,116.433 334.035,111.422 L329.996,107.004 Z M319.199,88.672 C324.059,88.672 326.902,91.902 327.152,96.914 L310.805,96.914 C311.688,91.836 314.527,88.672 319.199,88.672 Z" id="Fill-11" fill="#030000"></path>
            <path d="M362.57,93.683 L366.992,89.199 C362.887,84.515 359.035,82.933 353.922,82.933 C344.582,82.933 338.016,89.726 338.016,100.543 C338.016,111.293 344.391,118.082 353.859,118.082 C359.227,118.082 363.141,116.371 367.496,110.632 L362.887,106.609 C359.414,110.566 357.145,111.886 353.922,111.886 C348.051,111.886 345.086,106.609 345.086,100.543 C345.086,94.476 348.051,89.066 353.922,89.066 C356.637,89.066 358.973,89.925 362.57,93.683 Z" id="Fill-12" fill="#030000"></path>
            <path d="M389.578,110.828 C387.496,111.422 386.422,111.554 385.348,111.554 C383.012,111.554 381.941,110.632 381.941,108.058 L381.941,89.465 L389.957,89.465 L389.957,83.988 L381.941,83.988 L381.941,73.304 L374.996,73.304 L374.996,83.988 L369.25,83.988 L369.25,89.465 L374.996,89.465 L374.996,108.918 C374.996,114.656 377.332,117.82 383.645,117.82 C385.602,117.82 387.875,117.492 390.461,116.566 L389.578,110.828 Z" id="Fill-13" fill="#030000"></path>
            <path d="M139.102,71.449 C139.102,109.859 107.961,141 69.551,141 C31.141,141 0,109.859 0,71.449 C0,33.039 31.141,1.898 69.551,1.898 C107.961,1.898 139.102,33.039 139.102,71.449 Z" id="Fill-14" fill="#FCD405"></path>
            <path d="M55.68,81.164 C50.792,78.016 47.808,74.074 46.726,69.343 C45.715,64.656 46.715,59.972 49.735,55.289 L63.902,33.3 C66.879,28.687 70.741,25.894 75.496,24.925 C80.297,23.886 85.106,24.921 89.922,28.027 C94.742,31.133 97.668,35.085 98.707,39.883 C99.856,44.656 98.942,49.351 95.969,53.969 L81.797,75.957 C78.782,80.636 74.894,83.464 70.141,84.433 C65.383,85.402 60.562,84.312 55.68,81.164 Z M59.746,74.851 C62.325,76.515 64.997,76.988 67.762,76.273 C70.64,75.535 72.996,73.742 74.833,70.89 L88.414,49.82 C90.293,46.902 90.953,44.011 90.395,41.156 C89.945,38.273 88.434,36 85.855,34.339 C83.277,32.675 80.582,32.237 77.774,33.019 C75.007,33.734 72.684,35.55 70.801,38.468 L57.223,59.538 C55.386,62.39 54.692,65.257 55.141,68.141 C55.633,70.953 57.168,73.191 59.746,74.851 Z" id="Stroke-15" stroke="#FCD405" stroke-width="5.721"></path>
            <path d="M55.68,81.164 C50.793,78.015 47.809,74.074 46.727,69.343 C45.715,64.656 46.715,59.972 49.734,55.289 L63.902,33.3 C66.879,28.687 70.742,25.894 75.496,24.925 C80.297,23.886 85.105,24.922 89.922,28.027 C94.742,31.132 97.668,35.086 98.707,39.882 C99.855,44.656 98.941,49.351 95.969,53.968 L81.797,75.957 C78.781,80.636 74.895,83.465 70.141,84.433 C65.383,85.402 60.562,84.312 55.68,81.164 Z M59.746,74.851 C62.324,76.515 64.996,76.988 67.762,76.273 C70.641,75.535 72.996,73.742 74.832,70.89 L88.414,49.82 C90.293,46.902 90.953,44.011 90.395,41.156 C89.945,38.273 88.434,36 85.855,34.34 C83.277,32.675 80.582,32.238 77.773,33.019 C75.008,33.734 72.684,35.55 70.801,38.468 L57.223,59.539 C55.387,62.39 54.691,65.257 55.141,68.14 C55.633,70.953 57.168,73.191 59.746,74.851 Z" id="Fill-16" fill="#145798"></path>
            <path d="M57.476,68.156 L43.304,90.14 C40.288,94.824 39.289,99.511 40.3,104.198 C41.383,108.93 44.367,112.871 49.25,116.019 C54.137,119.167 58.957,120.257 63.711,119.288 C68.469,118.319 72.355,115.488 75.371,110.808 L89.539,88.824 L81.988,84.671 L68.41,105.742 C66.57,108.594 64.214,110.39 61.34,111.128 C58.57,111.844 55.899,111.366 53.32,109.706 C50.742,108.043 49.203,105.804 48.715,102.992 C48.266,100.109 48.961,97.245 50.797,94.394 L64.378,73.324 L57.476,68.156 Z" id="Stroke-17" stroke="#FCD405" stroke-width="5.721"></path>
            <path d="M57.477,68.156 L43.305,90.14 C40.289,94.824 39.289,99.511 40.301,104.199 C41.383,108.929 44.367,112.871 49.25,116.019 C54.137,119.168 58.957,120.257 63.711,119.289 C68.469,118.32 72.355,115.488 75.371,110.808 L89.539,88.824 L81.988,84.672 L68.41,105.742 C66.57,108.593 64.215,110.39 61.34,111.129 C58.57,111.843 55.898,111.367 53.32,109.707 C50.742,108.043 49.203,105.804 48.715,102.992 C48.266,100.109 48.961,97.246 50.797,94.394 L64.379,73.324 L57.477,68.156 Z" id="Fill-18" fill="#145798"></path>
            <path d="M49.25,116.019 C44.367,112.871 41.383,108.929 40.301,104.199 C39.285,99.511 40.289,94.828 43.309,90.144 L57.477,68.156 C60.449,63.543 64.316,60.75 69.07,59.781 C73.871,58.742 78.68,59.777 83.496,62.882 C88.312,65.988 91.242,69.937 92.281,74.738 C93.43,79.511 92.516,84.207 89.543,88.82 L75.371,110.808 C72.355,115.492 68.469,118.316 63.715,119.289 C58.957,120.257 54.137,119.168 49.25,116.019 Z M53.32,109.707 C55.898,111.371 58.57,111.843 61.336,111.129 C64.215,110.39 66.57,108.593 68.406,105.746 L81.988,84.672 C83.867,81.754 84.527,78.867 83.969,76.007 C83.52,73.125 82.008,70.855 79.43,69.191 C76.852,67.531 74.156,67.09 71.348,67.875 C68.582,68.59 66.258,70.406 64.375,73.324 L50.797,94.394 C48.961,97.246 48.266,100.109 48.715,102.992 C49.203,105.808 50.738,108.047 53.32,109.707 Z" id="Fill-19" fill="#145798"></path>
            <path d="M89.922,28.027 C85.106,24.921 80.293,23.886 75.496,24.925 C70.741,25.894 66.879,28.687 63.902,33.3 L49.735,55.289 L57.223,59.538 L70.805,38.468 C72.684,35.55 75.007,33.734 77.774,33.019 C80.582,32.235 83.278,32.68 85.855,34.339 C88.434,36.004 89.945,38.269 90.394,41.152 C90.953,44.011 90.297,46.903 88.414,49.82 L74.836,70.891 L81.801,75.953 L95.969,53.964 C98.942,49.351 99.856,44.656 98.704,39.882 C97.668,35.085 94.742,31.133 89.922,28.027 Z" id="Stroke-20" stroke="#FCD405" stroke-width="5.721" stroke-linejoin="bevel"></path>
            <path d="M89.922,28.027 C85.105,24.922 80.293,23.886 75.496,24.925 C70.742,25.894 66.879,28.687 63.902,33.3 L49.734,55.289 L57.223,59.539 L70.805,38.468 C72.684,35.55 75.008,33.734 77.773,33.019 C80.582,32.234 83.277,32.679 85.855,34.34 C88.434,36.004 89.945,38.269 90.395,41.152 C90.953,44.011 90.297,46.902 88.414,49.82 L74.836,70.89 L81.801,75.953 L95.969,53.965 C98.941,49.351 99.855,44.656 98.703,39.882 C97.668,35.086 94.742,31.132 89.922,28.027 Z" id="Fill-21" fill="#145798"></path>
            <path d="M89.922,28.027 C85.105,24.922 80.293,23.886 75.496,24.925 C70.742,25.894 66.879,28.687 63.902,33.3 L49.734,55.289 C48.297,57.519 47.383,59.754 46.859,61.984 C58.898,70.242 52.82,66.547 57.223,59.539 L70.805,38.468 C72.684,35.55 75.008,33.734 77.773,33.019 C80.582,32.234 83.277,32.679 85.855,34.34 C88.434,36.004 89.945,38.269 90.395,41.152 C90.953,44.011 90.297,46.902 88.414,49.82 L74.836,70.89 C73.824,72.461 72.633,73.664 71.289,74.558 C71.289,74.558 73.855,79.382 76.867,81.324 C78.699,79.933 80.359,78.183 81.801,75.953 L95.969,53.965 C98.941,49.351 99.855,44.656 98.703,39.882 C97.668,35.086 94.742,31.132 89.922,28.027 Z" id="Fill-22" fill="#145798"></path>
        </g>
    </g>
</svg>