<?xml version="1.0" encoding="utf-8"?>
<!-- Generator: Adobe Illustrator 22.1.0, SVG Export Plug-In . SVG Version: 6.00 Build 0)  -->
<svg version="1.1" id="Layer_1" xmlns="http://www.w3.org/2000/svg" xmlns:xlink="http://www.w3.org/1999/xlink" x="0px" y="0px"
	 viewBox="0 0 526.8 410.6" style="enable-background:new 0 0 526.8 410.6;" xml:space="preserve">
<style type="text/css">
	.st0{fill:#E65120;}
	.st1{fill:#0D0D0D;}
	.st2{fill:#090909;}
	.st3{fill:#0F0F0F;}
	.st4{fill:#FEFCFC;}
</style>
<title>Asset 1</title>
<g id="Layer_2_1_">
	<g id="Layer_1-2">
		<path class="st0" d="M127.3,135.8C126,62.6,187.1-1,264.6,0C337.5,1,398,60.8,397.9,135.2c0,75.6-60.3,136.2-135.5,136.1
			C186.2,271.1,126.3,208.4,127.3,135.8z"/>
		<path class="st1" d="M286.1,345.3V322l-0.8-0.3c-3.2,7.9-6.4,15.7-9.6,23.6c-1.6,0.8-3.5,0.7-5-0.2l-9.2-22.1l-1.1,0.2v22
			c-2.5,0.7-5.2,0.8-7.7,0.3v-39.9h9.1l11.4,26.6l11.4-26.6h9.1v39.7C291.3,346.1,288.6,346.1,286.1,345.3z"/>
		<path class="st2" d="M240.9,410.2c-2.4,0.6-5,0.6-7.4,0v-22.9l-1.2-0.2l-9.5,23.4h-4.6l-9.6-23l-0.8,0.1v22.3
			c-2.7,1.4-5,0.5-7.6,0.8v-40h8.9c3.6,8.3,7.3,17,11.4,26.5c4-9.4,7.7-18,11.4-26.6h8.9L240.9,410.2z"/>
		<path class="st3" d="M405.7,394.4v-23.9c2.5-0.5,5.1-0.5,7.6,0v39.5c-2.3,1.1-5,0.2-8.1,0.6l-16.3-26.7v25.9
			c-2.8,1.2-5.2,0.9-7.8,0.5v-39.7h8.6l14.9,24.4L405.7,394.4z"/>
		<path class="st1" d="M477.2,330v-24.4h7.5v39.7c-2.5,0.9-5,0.2-7.9,0.5l-15.4-25.1l-1,0.2v24.2c-2.5,0.7-5.2,0.9-7.8,0.4v-39.9
			h8.6l14.9,24.6L477.2,330z"/>
		<path class="st1" d="M155.7,331.1h-8.3c-1.4-2.4-0.8-4.6-0.5-7h17.6c1.9,9.7-4.1,19.2-13.7,21.7c-11,2.7-20.7-3-23.9-14
			s2.5-22.8,12.6-26.1c9-2.9,21.5,0.3,24.2,11.6l-7.3,0.6c-7.3-7.9-12.4-6.3-16.3-4.2c-4.6,2.5-6.7,10.4-4.8,16.6
			c1.7,5.4,6.4,9.2,11.3,8.8C151.3,338.6,154.6,336.4,155.7,331.1z"/>
		<path class="st2" d="M143.8,410.4h-8.2c-5.1-8.4-10.3-16.9-15.4-25.3l-0.9,0.1v24.9c-2.5,0.6-5.2,0.6-7.7,0v-39.6h8.7l15.5,25.6
			v-25.6h8L143.8,410.4z"/>
		<path class="st2" d="M254.7,410.2v-39.6h8.7l15.8,25.9v-25.7c2.8-0.9,5.2-0.5,7.8-0.5v39.8c-2.5,0.8-5.1,0.2-8.1,0.4l-16.4-26.9
			v26.3C259.7,410.9,257.5,410.6,254.7,410.2z"/>
		<path class="st3" d="M8,321.6h16.4c0.8,2.5,0.6,4.7,0.3,7.2H8.1v9.4h16.4c1.2,2.5,0.5,4.7,0.6,7.3H0v-39.9h24.9
			c0.6,2.3,0.6,4.8,0,7.1H8.4C7.3,315.7,7.9,318.4,8,321.6z"/>
		<path class="st3" d="M518.2,316.4c-1.7-3.9-4.7-5.2-8.6-4.3c-1.9,0.4-3.5,1.3-3.8,3.4c-0.4,1.9,0.8,3.8,2.6,4.3
			c3.1,1.2,6.3,2.2,9.4,3.3c6.5,2.4,9.5,6.4,8.8,12.2s-5.4,10.2-11.9,10.9c-11,1.2-17.3-3-17.8-12.4h7.3c3.2,6.4,8,7.4,13.7,2.6
			c0.8-2.8-0.6-4.4-3.1-5.3c-3.4-1.3-6.9-2.6-10.2-3.9c-4.6-1.8-7.2-5.3-7.3-10.3c0.1-5,3.2-9.4,7.8-11.2c7.6-3.1,20.7,0,20.4,9.8
			C523.5,316.8,521.1,315.9,518.2,316.4z"/>
		<path class="st1" d="M352.6,393.7v9c2.8,1,5.6,0.3,8.4,0.5s5.6,0,8.7,0v7.1h-25.4v-39.8h25.2c1.2,2,0,4.3,0.7,6.9h-16.9
			c-1.4,3-0.6,5.8-0.8,8.8h15.9c1.8,2.4,0.4,4.8,1.3,7.5L352.6,393.7z"/>
		<path class="st3" d="M101.4,321.7h16.5v7.3h-16.5v9.3h16.7c1,2.6,0.7,4.7,0.4,7.2H93.1v-39.8h25.1c1.3,2,0.1,4.3,0.8,7h-17.3
			C100.8,315.8,101.1,318.4,101.4,321.7z"/>
		<path class="st3" d="M371.9,305.7c0.4,2.3,0.4,4.7,0,7h-9.7v32.5c-3,1-5.6,0.5-8.5,0.6v-32.2c-3.5-1.4-6.9,0-10.1-1
			c-0.5-2.2-0.6-4.5-0.2-6.8H371.9z"/>
		<path class="st3" d="M221.8,305.6v7.2h-10.1v32.7h-8.3V313H193c-0.2-2.7-0.5-5,0.2-7.4L221.8,305.6z"/>
		<path class="st2" d="M66.9,338.1H82c0.6,2.4,0.6,5,0,7.4H59v-39.9h7.9V338.1z"/>
		<path class="st3" d="M382.8,305.5h7.5v40h-7.5V305.5z"/>
		<path class="st1" d="M183.6,345.4c-2.5,0.6-5.2,0.6-7.7,0.1v-39.8h7.7V345.4z"/>
		<path class="st2" d="M231.2,305.6h7.7v39.7c-2.5,0.9-5,0.6-7.7,0V305.6z"/>
		<path class="st2" d="M33.4,335v-6.6h15.5v6.6H33.4z"/>
		<path class="st3" d="M180.4,360.7c1.7,2.4,2.1,4.5-0.1,6.4c-1.4,1.3-3.5,1.4-5,0.2c-1.8-1.1-2.3-3.5-1.2-5.3
			C175.5,359.6,177.9,359.7,180.4,360.7z"/>
		<path class="st3" d="M163.8,360.7c1.5-0.7,3.2-0.8,4.7-0.2c2.3,1.9,2.8,4.1,0.8,6.4c-1.2,1.6-3.5,1.9-5.1,0.6
			c-0.1-0.1-0.2-0.1-0.2-0.2C161.6,365.3,161.7,363.1,163.8,360.7z"/>
		<path class="st4" d="M357,149.4H221.4c-0.4,15,10.4,34.1,25.3,40c20.6,8.1,39.2,2,54.9-18.5c16.5,0.4,33.2,2.5,49.9,3.6
			c0.8,2.6-0.7,4.4-1.5,6.3c-10.5,25.4-29.8,40.9-55.8,47.9c-23.9,6.4-47.9,6.3-71.2-2.6s-40-25.3-49.1-48.7
			c-11.7-30.1-11.2-60.3,1.8-89.9c10.2-23.2,27.9-38.6,52-46.3s48.7-7.5,72.4,1.8c29.4,11.5,46.6,33.8,53.8,64.1
			c2,7.9,3,16.1,3,24.2C357,137.1,357,142.9,357,149.4z"/>
		<path class="st1" d="M421.8,304.6c-11.4-0.1-19.9,9-19.9,21.1s8.3,20.7,19.6,20.6c11.8-0.1,19.7-8.6,19.5-21.1
			C441,313.4,432.8,304.7,421.8,304.6z M428.6,336.3c-4.2,3.9-10.7,3.7-14.6-0.5c-0.8-0.9-1.5-1.9-1.9-3c-1-2.4-1.5-4.9-1.5-7.5
			c0.3-3.6,0.8-6.8,3.1-9.5c3.7-4.4,10.1-4.9,14.5-1.3c0.3,0.3,0.6,0.5,0.9,0.8C434,320.6,433.8,331.3,428.6,336.3z"/>
		<path class="st2" d="M321.2,371c-7-1.7-14.1-0.5-21.3-0.8v40c6.6,0,12.8,0.4,18.9-0.1c8.5-0.8,14.8-8.4,15.4-17.7
			C334.9,381,330.4,373.2,321.2,371z M323.8,398.1c-3.4,6.4-9.5,5.5-15.7,5.2v-25.8c5.9-0.4,11.8-1,15.4,4.6
			C326.8,387,326.7,392.7,323.8,398.1z"/>
		<path class="st3" d="M326.1,305.5h-8.6c-4.8,13.3-9.6,26.5-14.5,40c3.3,0.3,6,0.6,8.5,0.1c2-2.7,1.4-6.1,3.5-8.1h13.7l3,8h8.9
			C335.6,331.8,330.8,318.6,326.1,305.5z M316.7,330.6c1.6-5,3-9.2,4.7-14.3c2.1,4.4,3.7,9.1,4.8,13.9
			C323.1,331.1,320.2,330.5,316.7,330.6z"/>
		<path class="st1" d="M176.5,370.4h-8.7c-4.8,13.2-9.6,26.4-14.5,40h8.7c1-2.7,1.9-5.3,2.9-8.1h13.8c2.1,2.6,1.7,6,3.7,8.2h8.6
			C186,396.6,181.2,383.4,176.5,370.4z M167.5,395.3c0.8-4.9,2.7-9.1,4.5-14.7l4.9,14.7H167.5z"/>
		<path class="st0" d="M304,115h-82.6c1.2-20.7,17.5-37.2,38.1-38.6C282.2,74.7,301.4,90.6,304,115z"/>
	</g>
</g>
</svg>
