<svg id="Layer_1" data-name="Layer 1" xmlns="http://www.w3.org/2000/svg" viewBox="0 0 200 200"><defs><style>.cls-1{fill:#fdcb08;}.cls-2{fill:#005392;}</style></defs><title>idp</title><g id="g14"><g id="g20"><path id="path22" class="cls-1" d="M200,100A100,100,0,1,1,100,0,100,100,0,0,1,200,100"/></g></g><path class="cls-2" d="M45.77,58.31v13H31.93v-13Zm0,21.17v54.37H31.93V79.48Z"/><path class="cls-2" d="M95.71,58.31h13.84v75.54H96.67v-7.13q-5.86,8.73-17.36,8.73A21.78,21.78,0,0,1,62,127.57q-6.76-7.87-6.76-20.85t6.81-20.91A22,22,0,0,1,79.42,78q10.65,0,16.29,7.13ZM72.87,119a11.59,11.59,0,0,0,9.64,4.58,12.34,12.34,0,0,0,9.9-4.58q3.82-4.58,3.83-12.23T92.41,94.48A12.34,12.34,0,0,0,82.61,90,11.79,11.79,0,0,0,73,94.54q-3.67,4.51-3.68,12.18T72.87,119Z"/><path class="cls-2" d="M151.93,77.89a21.79,21.79,0,0,1,17.31,7.87Q176,93.64,176,106.61t-6.82,20.91a22,22,0,0,1-17.35,7.82q-10.65,0-16.29-7.13V153H121.69V79.48h12.89v7.13Q140.43,77.88,151.93,77.89Zm-13.09,41a12.32,12.32,0,0,0,9.79,4.47,11.81,11.81,0,0,0,9.64-4.53q3.67-4.52,3.67-12.18t-3.56-12.23a11.59,11.59,0,0,0-9.64-4.58,12.31,12.31,0,0,0-9.9,4.58Q135,99,135,106.61T138.84,118.85Z"/></svg>