<svg id="Layer_1" data-name="Layer 1" xmlns="http://www.w3.org/2000/svg" xmlns:xlink="http://www.w3.org/1999/xlink" viewBox="0 0 456 160"><defs><style>.cls-1{fill:none;}.cls-2{clip-path:url(#clip-path);}.cls-3{fill:#fecc08;}.cls-4{fill:#010101;}.cls-5{fill:#015393;}</style><clipPath id="clip-path"><rect class="cls-1" x="-67.63" y="-119.71" width="595" height="842"/></clipPath></defs><title>Reference IdP logo</title><g class="cls-2"><g id="g14"><g id="g20"><path id="path22" class="cls-3" d="M160,80.69A71.72,71.72,0,1,1,88.26,9,71.72,71.72,0,0,1,160,80.69"/></g></g></g><g id="text36"><path id="path4639" class="cls-4" d="M198.33,41.22c-8.63,0-13.79,4.55-13.79,10.46s3.13,8.08,12.5,10.19c5.09,1.08,8.9,1.83,8.9,5.09,0,2.79-2.92,4.42-6.73,4.42-4.07,0-6.93-1.09-12-5.23L182.91,71c5.5,4.82,10,6.38,16.17,6.38,8.82,0,14.19-4.48,14.19-10.93,0-6.18-3.94-8.63-13.11-10.67-6-1.36-8.49-1.83-8.49-4.41,0-2.38,2.52-4.14,6.52-4.14,3.6,0,6.18.81,10.46,4.07l4.08-5C208,42.58,204,41.22,198.33,41.22Z"/><path id="path4641" class="cls-4" d="M257.75,42.31,254.7,54.19c-1.5,5.91-2.65,11.14-3.53,15.62-1-4.48-2.24-9.71-3.81-15.62L244.1,42.31h-7l-3.19,11.88c-1.5,5.84-2.79,11-3.81,15.49-.88-4.48-2-9.65-3.53-15.49l-3-11.88h-7.87l9.57,34.09h8.9l2.71-10c1.57-5.91,2.65-10.73,3.6-14.81.89,4.08,2,8.9,3.67,14.81l2.79,10h9l9.51-34.09Z"/><path id="path4643" class="cls-4" d="M295.92,66c-4.07,3.67-6.45,5.09-10.59,5.09-6.59,0-9.71-4.48-10.26-10h25c.06-.68.13-2.17.13-3,0-10.33-5.57-16.78-15.69-16.78-10.39,0-16.77,7.68-16.77,18.34s6.65,17.86,17.45,17.86c5.5,0,10.05-1.7,15.08-6.86ZM284.31,47.13c5.23,0,8.29,3.33,8.56,8.49H275.28C276.23,50.39,279.28,47.13,284.31,47.13Z"/><path id="path4645" class="cls-4" d="M331.59,28.18V46.32c-2.31-3.2-5.77-5-10.66-5-8.63,0-15.15,7.06-15.15,18s6.39,18,15.08,18c5.3,0,9-2.17,11.28-5.91v5h6.92V28.18ZM322.36,71c-5.51,0-9-4.62-9-11.62s3.67-11.54,9-11.54,9.44,4.21,9.44,11.54S327.92,71,322.36,71Z"/><path id="path4647" class="cls-4" d="M374.31,66c-4.07,3.67-6.45,5.09-10.59,5.09-6.59,0-9.72-4.48-10.26-10h25c.07-.68.14-2.17.14-3,0-10.33-5.57-16.78-15.69-16.78-10.39,0-16.77,7.68-16.77,18.34s6.65,17.86,17.45,17.86c5.5,0,10.05-1.7,15.08-6.86ZM362.7,47.13c5.23,0,8.28,3.33,8.55,8.49H353.66C354.62,50.39,357.67,47.13,362.7,47.13Z"/><path id="path4649" class="cls-4" d="M403.36,41.22c-4.69,0-8.36,1.9-10.53,5.23V42.31H385.9V76.4h7.47V55.55a7.56,7.56,0,0,1,7.68-7.94c4.55,0,7.06,2.71,7.06,7.74V76.4h7.47V53C415.58,46.32,411.44,41.22,403.36,41.22Z"/><path id="path4651" class="cls-4" d="M208.18,101.26l4.75-4.62c-4.41-4.82-8.56-6.45-14.06-6.45-10.05,0-17.11,7-17.11,18.13s6.86,18.07,17,18.07c5.78,0,10-1.77,14.67-7.68l-4.95-4.14c-3.74,4.07-6.18,5.43-9.65,5.43-6.31,0-9.51-5.43-9.51-11.68s3.2-11.82,9.51-11.82C201.79,96.5,204.31,97.39,208.18,101.26Z"/><path id="path4653" class="cls-4" d="M234.05,90.19c-10.25,0-17.38,7.33-17.38,18.13s7.13,18.07,17.38,18.07,17.32-7.34,17.32-18.07S244.17,90.19,234.05,90.19Zm0,6.31c5.84,0,9.71,4.69,9.71,11.82s-3.87,11.75-9.71,11.75-9.78-4.69-9.78-11.75S228.08,96.5,234.05,96.5Z"/><path id="path4655" class="cls-4" d="M275,90.19c-4.69,0-8.36,1.9-10.53,5.23V91.28h-6.93v34.09H265V104.52a7.57,7.57,0,0,1,7.68-8c4.55,0,7.06,2.72,7.06,7.74v21.06h7.47V102C287.23,95.28,283.09,90.19,275,90.19Z"/><path id="path4657" class="cls-4" d="M313,90.19c-4.69,0-8.36,1.9-10.53,5.23V91.28h-6.93v34.09h7.47V104.52a7.57,7.57,0,0,1,7.68-8c4.55,0,7.06,2.72,7.06,7.74v21.06h7.47V102c0-6.73-4.14-11.82-12.22-11.82Z"/><path id="path4659" class="cls-4" d="M360.05,115c-4.08,3.66-6.45,5.09-10.6,5.09-6.58,0-9.71-4.48-10.25-10h25c.07-.68.14-2.17.14-3.06,0-10.32-5.57-16.77-15.69-16.77-10.39,0-16.78,7.67-16.78,18.34s6.66,17.86,17.46,17.86c5.5,0,10.05-1.7,15.08-6.86ZM348.44,96.1c5.22,0,8.28,3.32,8.55,8.49H339.4C340.35,99.36,343.41,96.1,348.44,96.1Z"/><path id="path4661" class="cls-4" d="M395.83,101.26l4.75-4.62c-4.41-4.82-8.56-6.45-14.06-6.45-10,0-17.11,7-17.11,18.13s6.86,18.07,17,18.07c5.78,0,10-1.77,14.67-7.68l-4.95-4.14c-3.74,4.07-6.18,5.43-9.65,5.43-6.31,0-9.51-5.43-9.51-11.68s3.2-11.82,9.51-11.82c2.92,0,5.44.89,9.31,4.76Z"/><path id="path4663" class="cls-4" d="M423.94,118.92a16,16,0,0,1-4.55.74c-2.51,0-3.66-1-3.66-3.6V96.91h8.62V91.28h-8.62v-8h-7.47v8h-6.19v5.63h6.19v20c0,5.91,2.51,9.17,9.3,9.17a22.58,22.58,0,0,0,7.33-1.29Z"/></g><path class="cls-5" d="M50.07,51.23v8.58H40.93V51.23Zm0,14v35.94H40.93V65.23Z"/><path class="cls-5" d="M83.06,51.23H92.2v49.94H83.69V96.46q-3.87,5.78-11.46,5.77A14.4,14.4,0,0,1,60.8,97q-4.47-5.2-4.47-13.78t4.5-13.83A14.56,14.56,0,0,1,72.3,64.24q7,0,10.76,4.72ZM68,91.32a7.65,7.65,0,0,0,6.37,3,8.14,8.14,0,0,0,6.54-3,12.16,12.16,0,0,0,2.53-8.08c0-3.43-.84-6.12-2.53-8.09a8.15,8.15,0,0,0-6.47-3,7.82,7.82,0,0,0-6.37,3,12.47,12.47,0,0,0-2.42,8.06A12.79,12.79,0,0,0,68,91.32Z"/><path class="cls-5" d="M120.2,64.17a14.4,14.4,0,0,1,11.43,5.21q4.47,5.2,4.46,13.79T131.59,97a14.54,14.54,0,0,1-11.46,5.17q-7,0-10.76-4.72v16.39h-9.15V65.23h8.51v4.71Q112.6,64.18,120.2,64.17Zm-8.65,27.08a8.13,8.13,0,0,0,6.47,3,7.8,7.8,0,0,0,6.36-3,12.39,12.39,0,0,0,2.43-8,12.8,12.8,0,0,0-2.36-8.09,7.63,7.63,0,0,0-6.36-3,8.12,8.12,0,0,0-6.54,3A12.17,12.17,0,0,0,109,83.17C109,86.59,109.86,89.29,111.55,91.25Z"/></svg>